<svg version="1.1" viewBox="0.0 0.0 700.3438320209974 654.007874015748" fill="none" stroke="none" stroke-linecap="square" stroke-miterlimit="10" xmlns:xlink="http://www.w3.org/1999/xlink" xmlns="http://www.w3.org/2000/svg"><clipPath id="p.0"><path d="m0 0l700.3438 0l0 654.0079l-700.3438 0l0 -654.0079z" clip-rule="nonzero"/></clipPath><g clip-path="url(#p.0)"><path fill="#000000" fill-opacity="0.0" d="m0 0l700.3438 0l0 654.0079l-700.3438 0z" fill-rule="evenodd"/><path fill="#666666" d="m585.68555 330.63327l0 0c-14.522217 151.1196 -128.37851 267.3513 -266.79758 272.3638c-138.41907 5.012512 -259.0125 -102.729126 -282.58472 -252.46921l102.418274 -19.409668c14.07074 99.15811 89.54494 170.91614 176.45119 167.76315c86.90622 -3.1530151 158.33694 -80.24078 166.99786 -180.2236z" fill-rule="evenodd"/><path fill="#434343" d="m3.7063162 339.58493l0 0c0 -47.303345 38.34692 -85.65025 85.650246 -85.65025l0 0c22.715858 0 44.501335 9.0238495 60.563866 25.08638c16.062546 16.06253 25.08638 37.847992 25.08638 60.563873l0 0c0 47.303314 -38.346924 85.65024 -85.650246 85.65024l0 0c-47.30332 0 -85.650246 -38.346924 -85.650246 -85.65024z" fill-rule="evenodd"/><path stroke="#434343" stroke-width="1.0" stroke-linejoin="round" stroke-linecap="butt" d="m3.7063162 339.58493l0 0c0 -47.303345 38.34692 -85.65025 85.650246 -85.65025l0 0c22.715858 0 44.501335 9.0238495 60.563866 25.08638c16.062546 16.06253 25.08638 37.847992 25.08638 60.563873l0 0c0 47.303314 -38.346924 85.65024 -85.650246 85.65024l0 0c-47.30332 0 -85.650246 -38.346924 -85.650246 -85.65024z" fill-rule="evenodd"/><path fill="#666666" d="m517.68353 86.33393l0 0c4.2157593 -28.188213 30.48236 -47.608677 58.66815 -43.376812l0 0l0 0c13.535339 2.0322113 25.712036 9.358524 33.85144 20.367237c8.139343 11.008713 11.574707 24.79805 9.550232 38.334503l-39.795837 266.0915c-4.2156982 28.188202 -30.48236 47.608673 -58.66815 43.3768l0 0l0 0c-28.185791 -4.231842 -47.61737 -30.51352 -43.40164 -58.70172z" fill-rule="evenodd"/><path fill="#434343" d="m479.99936 85.65038l0 0c0 -47.303326 38.346893 -85.650246 85.65024 -85.650246l0 0c22.715881 0 44.501343 9.023839 60.563904 25.086376c16.0625 16.062536 25.086365 37.848007 25.086365 60.563873l0 0c0 47.30332 -38.346924 85.650246 -85.65027 85.650246l0 0c-47.303345 0 -85.65024 -38.346924 -85.65024 -85.650246z" fill-rule="evenodd"/><path stroke="#434343" stroke-width="1.0" stroke-linejoin="round" stroke-linecap="butt" d="m479.99936 85.65038l0 0c0 -47.303326 38.346893 -85.650246 85.65024 -85.650246l0 0c22.715881 0 44.501343 9.023839 60.563904 25.086376c16.0625 16.062536 25.086365 37.848007 25.086365 60.563873l0 0c0 47.30332 -38.346924 85.650246 -85.65027 85.650246l0 0c-47.303345 0 -85.65024 -38.346924 -85.65024 -85.650246z" fill-rule="evenodd"/></g></svg>