<svg version="1.1" viewBox="0.0 0.0 309.04461942257217 304.65616797900265" fill="none" stroke="none" stroke-linecap="square" stroke-miterlimit="10" xmlns:xlink="http://www.w3.org/1999/xlink" xmlns="http://www.w3.org/2000/svg"><clipPath id="p.0"><path d="m0 0l309.04462 0l0 304.65616l-309.04462 0l0 -304.65616z" clip-rule="nonzero"/></clipPath><g clip-path="url(#p.0)"><path fill="#000000" fill-opacity="0.0" d="m0 0l309.04462 0l0 304.65616l-309.04462 0z" fill-rule="evenodd"/><path fill="#666666" d="m31.805645 30.320845l0 0c10.185928 -10.185928 26.700577 -10.185928 36.88651 0l184.90544 184.90544c4.891449 4.891449 7.639435 11.525681 7.639435 18.443253c0 6.917557 -2.7479858 13.551788 -7.639435 18.443253l0 0l0 0c-10.185928 10.185913 -26.700577 10.185913 -36.886505 0l-184.90544 -184.90544c-10.185928 -10.185928 -10.185928 -26.70058 0 -36.886505z" fill-rule="evenodd"/><path fill="#434343" d="m2.4803603 46.755676l0 0c0 -25.13109 20.372776 -45.50387 45.503864 -45.50387l0 0c12.068378 0 23.642467 4.7941437 32.176098 13.327774c8.53363 8.53363 13.327774 20.107718 13.327774 32.176094l0 0c0 25.131096 -20.37278 45.50387 -45.503872 45.50387l0 0c-25.13109 0 -45.503864 -20.372772 -45.503864 -45.50387z" fill-rule="evenodd"/><path fill="#434343" d="m210.34604 257.89786l0 0c0 -25.131088 20.372772 -45.503876 45.50386 -45.503876l0 0c12.068375 0 23.642471 4.7941437 32.1761 13.327774c8.53363 8.53363 13.327759 20.107727 13.327759 32.1761l0 0c0 25.131104 -20.372772 45.503876 -45.50386 45.503876l0 0c-25.131088 0 -45.50386 -20.372772 -45.50386 -45.503876z" fill-rule="evenodd"/></g></svg>