<svg version="1.1" viewBox="0.0 0.0 172.02099737532808 298.1443569553806" fill="none" stroke="none" stroke-linecap="square" stroke-miterlimit="10" xmlns:xlink="http://www.w3.org/1999/xlink" xmlns="http://www.w3.org/2000/svg"><clipPath id="p.0"><path d="m0 0l172.021 0l0 298.14435l-172.021 0l0 -298.14435z" clip-rule="nonzero"/></clipPath><g clip-path="url(#p.0)"><path fill="#000000" fill-opacity="0.0" d="m0 0l172.021 0l0 298.14435l-172.021 0z" fill-rule="evenodd"/><defs><linearGradient id="p.1" gradientUnits="userSpaceOnUse" gradientTransform="matrix(0.0 -11.139854200317457 11.139854200317457 0.0 0.0 0.0)" spreadMethod="pad" x1="-25.539885540495046" y1="2.418832204633734" x2="-25.539926036131472" y2="13.558686404877584"><stop offset="0.0" stop-color="#ffffff"/><stop offset="1.0" stop-color="#737373"/></linearGradient></defs><path fill="url(#p.1)" d="m151.0418 284.5106l-124.095436 -129.62619l124.095436 -123.29805z" fill-rule="evenodd"/><path stroke="#000000" stroke-width="1.0" stroke-linejoin="round" stroke-linecap="butt" d="m151.0418 284.5106l-124.095436 -129.62619l124.095436 -123.29805z" fill-rule="evenodd"/><path fill="#666666" d="m13.703332 145.82361l0 0c4.2759027 -4.275894 11.208972 -4.276352 15.485444 -0.0010223389l121.81841 121.78584c2.0536346 2.0531006 3.2074585 4.8377686 3.2076569 7.7414856c1.8310547E-4 2.9036865 -1.1532745 5.6885376 -3.2066345 7.7418823l0 0l0 0c-4.275894 4.2759094 -11.208969 4.276367 -15.485443 0.0010375977l-121.8184 -121.78584c-4.276473 -4.2753296 -4.2769356 -11.207474 -0.0010347366 -15.483383z" fill-rule="evenodd"/><path fill="#666666" d="m152.56506 21.743883l0 0c4.275894 4.275902 4.275894 11.208509 0 15.484411l-121.30678 121.30677c-2.05336 2.05336 -4.838314 3.2069244 -7.7422047 3.2069244c-2.9038906 0 -5.6888447 -1.1535645 -7.7422047 -3.2069244l0 0l0 0c-4.275902 -4.2759094 -4.275902 -11.208511 0 -15.4844055l121.30676 -121.30678c4.2759094 -4.275902 11.208511 -4.275902 15.484421 0z" fill-rule="evenodd"/><path fill="#666666" d="m148.12164 17.24248l0 0c6.0490875 0 10.952835 4.9037514 10.952835 10.952835l0 247.86063c0 2.9048767 -1.1539612 5.6907654 -3.2080078 7.7448425c-2.054062 2.0540466 -4.8399506 3.2080078 -7.7448273 3.2080078l0 0l0 0c-6.0490875 0 -10.952835 -4.9037476 -10.952835 -10.95285l0 -247.86063c0 -6.0490837 4.9037476 -10.952835 10.952835 -10.952835z" fill-rule="evenodd"/><path fill="#434343" d="m1.4447803 153.9083l0 0c0 -12.402145 10.053922 -22.45607 22.456062 -22.45607l0 0c5.955719 0 11.667505 2.3659058 15.878836 6.57724c4.2113266 4.211319 6.5772285 9.923111 6.5772285 15.87883l0 0c0 12.402145 -10.053921 22.456055 -22.456064 22.456055l0 0c-12.402141 0 -22.456062 -10.053909 -22.456062 -22.456055z" fill-rule="evenodd"/><path stroke="#434343" stroke-width="1.0" stroke-linejoin="round" stroke-linecap="butt" d="m1.4447803 153.9083l0 0c0 -12.402145 10.053922 -22.45607 22.456062 -22.45607l0 0c5.955719 0 11.667505 2.3659058 15.878836 6.57724c4.2113266 4.211319 6.5772285 9.923111 6.5772285 15.87883l0 0c0 12.402145 -10.053921 22.456055 -22.456064 22.456055l0 0c-12.402141 0 -22.456062 -10.053909 -22.456062 -22.456055z" fill-rule="evenodd"/><path fill="#434343" d="m125.66558 271.7904l0 0c0 -12.402161 10.053917 -22.45607 22.456062 -22.45607l0 0c5.955719 0 11.667511 2.3658905 15.87883 6.5772247c4.211334 4.211334 6.57724 9.923126 6.57724 15.878845l0 0c0 12.40213 -10.053925 22.456055 -22.45607 22.456055l0 0c-12.402145 0 -22.456062 -10.053925 -22.456062 -22.456055z" fill-rule="evenodd"/><path stroke="#434343" stroke-width="1.0" stroke-linejoin="round" stroke-linecap="butt" d="m125.66558 271.7904l0 0c0 -12.402161 10.053917 -22.45607 22.456062 -22.45607l0 0c5.955719 0 11.667511 2.3658905 15.87883 6.5772247c4.211334 4.211334 6.57724 9.923126 6.57724 15.878845l0 0c0 12.40213 -10.053925 22.456055 -22.45607 22.456055l0 0c-12.402145 0 -22.456062 -10.053925 -22.456062 -22.456055z" fill-rule="evenodd"/><path fill="#434343" d="m125.66558 26.354553l0 0c0 -12.402142 10.053917 -22.456062 22.456062 -22.456062l0 0c5.955719 0 11.667511 2.3659 15.87883 6.5772285c4.211334 4.2113285 6.57724 9.923116 6.57724 15.878835l0 0c0 12.402142 -10.053925 22.456062 -22.45607 22.456062l0 0c-12.402145 0 -22.456062 -10.053921 -22.456062 -22.456062z" fill-rule="evenodd"/><path stroke="#434343" stroke-width="1.0" stroke-linejoin="round" stroke-linecap="butt" d="m125.66558 26.354553l0 0c0 -12.402142 10.053917 -22.456062 22.456062 -22.456062l0 0c5.955719 0 11.667511 2.3659 15.87883 6.5772285c4.211334 4.2113285 6.57724 9.923116 6.57724 15.878835l0 0c0 12.402142 -10.053925 22.456062 -22.45607 22.456062l0 0c-12.402145 0 -22.456062 -10.053921 -22.456062 -22.456062z" fill-rule="evenodd"/></g></svg>